# xmcd
#
# Track frame offsets: 
#        150
#        23577
#        43106
#        72199
#        100720
#        118593
#        140827
#        155798
#        168209
#        191214
#        212471
#        234899
#        254118
#        270246
#        286310
#        301775
#        311563
#        326769
#
# Disc length: 4584 seconds
#
# Revision: 0
# Processed by: cddbd v1.5.2PL0 Copyright (c) Steve Scherf et al.
# Submitted via: ExactAudioCopy v1.0b3
#
DISCID=fe11e612
DTITLE=Jeff Liberman - Introspection
DYEAR=2008
DGENRE=Blues
TTITLE0=Lose Control
TTITLE1=Fascination With Fire
TTITLE2=A Day In Santa Fe
TTITLE3=Love Flows
TTITLE4=Steppin' Stone
TTITLE5=I Need Your Love
TTITLE6=Reason To Be
TTITLE7=We've Got The Power
TTITLE8=A New Beginning
TTITLE9=In The Moment
TTITLE10=Comin' Down On Me
TTITLE11=Our Love Is Comin'
TTITLE12=A Jones For Hilary
TTITLE13=Places To Go
TTITLE14=Midnight Sky
TTITLE15=Four Shots Of Schnapps
TTITLE16=A Perfect Storm
TTITLE17=Alive
EXTD=
EXTT0=
EXTT1=
EXTT2=
EXTT3=
EXTT4=
EXTT5=
EXTT6=
EXTT7=
EXTT8=
EXTT9=
EXTT10=
EXTT11=
EXTT12=
EXTT13=
EXTT14=
EXTT15=
EXTT16=
EXTT17=
PLAYORDER=
